<svg xmlns="http://www.w3.org/2000/svg" version="1.1" xmlns:xlink="http://www.w3.org/1999/xlink" xmlns:svgjs="http://svgjs.com/svgjs" width="512" height="512" x="0" y="0" viewBox="0 0 480 480" style="enable-background:new 0 0 512 512" xml:space="preserve" class=""><g><path d="M416 120h16v112h-16zM1.098 391.871c.355 1.54.824 3.05 1.406 4.52.23.558.586 1.046.848 1.601a29.34 29.34 0 0 0 10.816 12.567 32.632 32.632 0 0 0 3.633 1.976c.613.305 1.176.703 1.816.977 1.426.55 2.89 1 4.383 1.343.559.145 1.07.383 1.64.497A32.2 32.2 0 0 0 32 416h216v-16H32c-1.074 0-2.148-.11-3.2-.32-.386-.082-.745-.243-1.12-.344a16.315 16.315 0 0 1-1.864-.578 18.143 18.143 0 0 1-1.601-.871c-.36-.207-.742-.367-1.086-.594a16.723 16.723 0 0 1-4.387-4.39c-.3-.458-.527-.97-.797-1.458-.273-.488-.488-.8-.672-1.254a14.205 14.205 0 0 1-.64-2.066c-.09-.313-.227-.605-.29-.934a16.003 16.003 0 0 1 3.282-13.308A15.98 15.98 0 0 1 32 368h24a8 8 0 0 0 8-8V80h280V64H64V24c0-4.422-3.582-8-8-8H32C14.328 16 0 30.324 0 48v336c0 2.148.219 4.293.648 6.398.106.497.32.97.45 1.473zM16 48c0-8.84 7.164-16 16-16h16v320H32a31.742 31.742 0 0 0-16 4.293zm0 0" fill="#fcf7f7" data-original="#000000" opacity="1" class=""></path><path d="M217.71 181.336 200.649 160H272v-16h-88a7.99 7.99 0 0 0-6.121 2.902c0 .047-.094.055-.125.098l-64 80a8.313 8.313 0 0 0-1.043 1.758c0 .054-.063.097-.086.152a8.044 8.044 0 0 0-.563 2.762c0 .117-.062.215-.062.328v96a8 8 0 0 0 8 8h208v-16h-72v-80h112v48h16v-56c0-.113-.063-.21-.063-.328a7.93 7.93 0 0 0-.562-2.754c0-.07-.078-.121-.102-.184a7.64 7.64 0 0 0-1.027-1.726l-24-30.035-12.492 9.984L359.352 224H251.848zM184 164.796l31.566 39.466L231.352 224h-94.704zM128 240h112v80h-24v-56c0-4.422-3.582-8-8-8h-48c-4.418 0-8 3.578-8 8v56h-24zm40 80v-48h32v48zm0 0" fill="#fcf7f7" data-original="#000000" opacity="1" class=""></path><path d="M296 256c-4.418 0-8 3.578-8 8v32a8 8 0 0 0 8 8h32a8 8 0 0 0 8-8v-32c0-4.422-3.582-8-8-8zm24 32h-16v-16h16zM475.063 216.605a8 8 0 0 0-8.72 1.739l-248 248A7.999 7.999 0 0 0 224 480h248a8 8 0 0 0 8-8V224a8.003 8.003 0 0 0-4.938-7.395zM464 464H243.312L464 243.309zm0 0" fill="#fcf7f7" data-original="#000000" opacity="1" class=""></path><path d="M336.61 427.063A8.002 8.002 0 0 0 344 432h80a8 8 0 0 0 8-8v-80a7.998 7.998 0 0 0-13.656-5.656l-80 80a7.997 7.997 0 0 0-1.735 8.719zM416 363.308V416h-52.688zM445.656 2.344a7.997 7.997 0 0 0-11.312 0l-144 144a8.067 8.067 0 0 0-1.93 3.125l-8 24a8 8 0 0 0 1.93 8.183l2.344 2.348-18.344 18.344 11.312 11.308L296 195.31l2.344 2.343A8.005 8.005 0 0 0 304 200c.86-.004 1.71-.14 2.527-.41l24-8a7.98 7.98 0 0 0 3.13-1.938l144-144a8 8 0 0 0 0-11.308zM311.312 148 344 115.309 364.688 136 332 168.688zm-5.144 34.848-9.008-9.008 4.336-13.035 17.703 17.699zM376 124.688 355.312 104 440 19.309 460.688 40zM80 336v24a8 8 0 0 0 8 8h24v-16H96v-16zM112 96H88c-4.418 0-8 3.578-8 8v24h16v-16h16zm0 0" fill="#fcf7f7" data-original="#000000" opacity="1" class=""></path></g></svg>