<svg xmlns="http://www.w3.org/2000/svg" version="1.1" xmlns:xlink="http://www.w3.org/1999/xlink" xmlns:svgjs="http://svgjs.com/svgjs" width="512" height="512" x="0" y="0" viewBox="0 0 128 128" style="enable-background:new 0 0 512 512" xml:space="preserve"><g><path d="M28 52h36a2 2 0 0 0 2-2V34h16a2 2 0 0 0 2-2V14a2 2 0 0 0-2-2H46a2 2 0 0 0-2 2v16H28a2 2 0 0 0-2 2v18a2 2 0 0 0 2 2zm2-18h16a2 2 0 0 0 2-2V16h32v14H64a2 2 0 0 0-2 2v16H30zM100 76H84V60a2 2 0 0 0-2-2H64a2 2 0 0 0-2 2v34H48V78a2 2 0 0 0-2-2H28a2 2 0 0 0-2 2v36a2 2 0 0 0 2 2h72a2 2 0 0 0 2-2V78a2 2 0 0 0-2-2zm-70 4h14v16a2 2 0 0 0 2 2h34v14H30zm68 32H84V96a2 2 0 0 0-2-2H66V62h14v16a2 2 0 0 0 2 2h16z" fill="#fcf7f7" data-original="#000000" opacity="1"></path></g></svg>