<svg xmlns="http://www.w3.org/2000/svg" version="1.1" xmlns:xlink="http://www.w3.org/1999/xlink" xmlns:svgjs="http://svgjs.com/svgjs" width="512" height="512" x="0" y="0" viewBox="0 0 511.999 511.999" style="enable-background:new 0 0 512 512" xml:space="preserve" class=""><g><path d="m511.964 444.408-.344-7.869c-.176-4.021-3.601-7.132-7.598-6.96a7.285 7.285 0 0 0-6.96 7.598l.347 7.932.008.144a5.206 5.206 0 0 1-1.412 3.933 5.169 5.169 0 0 1-3.806 1.65h-42.628V316.337l10.99 3.884c18.939 6.693 32.008 23.978 33.313 44.051l1.208 27.635c.176 4.02 3.572 7.144 7.597 6.96a7.285 7.285 0 0 0 6.961-7.597l-1.211-27.708-.008-.144c-1.651-25.938-18.531-48.287-43.005-56.935l-20.35-7.192c-.12-.05-.231-.114-.354-.157l-60.776-21.48a8.896 8.896 0 0 0-.709-.214c-.115-.031-.231-.051-.346-.076-4.022-1.041-8.38.116-11.344 3.085l-1.879 1.882-16.037-8.05-.002-14.058c4.846-3.336 9.41-7.315 13.554-11.755l.147-.158c10.465-11.27 18.189-25.458 20.817-39.554.07-.372.139-.745.202-1.117a58.955 58.955 0 0 0 .437-3.085c.018-.154.041-.309.057-.463a55.23 55.23 0 0 0 .184-2.089h3.024c9.392 0 17.033-7.641 17.033-17.033v-19.091c0-.903-.079-1.798-.22-2.682a13.608 13.608 0 0 0 1.692-6.582v-8.14c0-6.189-4.113-11.422-9.715-13.04v-1.149c0-.695-.009-1.389-.026-2.079-.493-19.429-8.122-37.834-21.479-51.823-12.185-12.761-28.124-20.839-45.29-23.044-.262-.47-.546-.924-.841-1.37-.076-.114-.156-.224-.234-.337a20.747 20.747 0 0 0-.94-1.257c-.058-.071-.113-.144-.171-.214a20.826 20.826 0 0 0-1.28-1.408l-.047-.045a21.059 21.059 0 0 0-1.364-1.24l-.158-.133a20.987 20.987 0 0 0-3.116-2.112c-.099-.055-.197-.11-.297-.164a20.858 20.858 0 0 0-1.677-.809c-.029-.012-.06-.022-.09-.035a20.6 20.6 0 0 0-1.62-.594 21.107 21.107 0 0 0-2.221-.598c-.034-.007-.068-.011-.102-.017a21 21 0 0 0-2.236-.318 20.98 20.98 0 0 0-1.9-.096h-6.877c-.64 0-1.272.039-1.9.096a20.967 20.967 0 0 0-2.233.317l-.105.018a21.08 21.08 0 0 0-2.222.598c-.548.178-1.089.372-1.618.593-.03.013-.062.023-.092.036-.573.243-1.129.517-1.676.808-.101.054-.201.11-.301.165-.534.296-1.058.61-1.564.951l-.004.003c-.534.36-1.047.749-1.546 1.157-.054.044-.107.09-.16.135-.471.393-.926.804-1.361 1.237l-.049.047c-.447.448-.873.918-1.278 1.406-.059.071-.115.144-.173.216-.328.405-.641.824-.939 1.255-.078.113-.159.223-.235.338-.295.445-.579.9-.841 1.37-17.165 2.205-33.105 10.284-45.289 23.043a77.537 77.537 0 0 0-15.271 23.208l-42.203-39.535c-8.662-8.114-22.215-8.096-30.853.043l-45.78 43.126-.008-5.042a10.743 10.743 0 0 0-3.18-7.645 10.746 10.746 0 0 0-7.638-3.158h-.016l-34.32.048c-5.964.009-10.811 4.868-10.804 10.835l.094 57.595L7.081 205.28C2.7 209.407.189 214.992.01 221.008s1.995 11.741 6.121 16.12a22.38 22.38 0 0 0 16.416 7.082c5.763 0 11.22-2.163 15.432-6.132l16.329-15.383.071 51.081a7.286 7.286 0 0 0 7.286 7.275h.01a7.286 7.286 0 0 0 7.276-7.296l-.091-64.768 103.582-97.579 41.614 38.984v6.221c0 .422.025.84.063 1.255.007.077.013.154.022.231a13.518 13.518 0 0 0 1.603 5.121 17.046 17.046 0 0 0-.215 2.657v19.091c0 9.392 7.641 17.033 17.034 17.033h3.014c.047.72.111 1.442.187 2.167.021.204.05.409.074.613a60.015 60.015 0 0 0 .406 2.894c.072.431.153.864.234 1.296.168.895.357 1.791.566 2.686.038.164.073.328.113.492.145.601.302 1.201.465 1.801l.1.361c1.297 4.68 3.123 9.327 5.395 13.834l.073.144a84.626 84.626 0 0 0 2.93 5.304c.138.23.274.46.414.689a85.303 85.303 0 0 0 1.528 2.406c.253.385.503.772.762 1.154.462.681.936 1.355 1.418 2.025.206.286.417.567.626.851.359.487.723.971 1.093 1.451.202.262.403.524.607.783a89.695 89.695 0 0 0 1.536 1.899c.075.09.147.181.222.27a88.31 88.31 0 0 0 1.753 2.02c.209.235.421.466.632.698.418.459.841.914 1.269 1.364.237.249.472.499.711.745a79.281 79.281 0 0 0 2.711 2.661c.323.304.646.609.974.908a80.735 80.735 0 0 0 1.847 1.632 79.23 79.23 0 0 0 6.759 5.224l-.002 13.905-16.032 8.052-1.882-1.885a11.85 11.85 0 0 0-7.38-3.421 11.927 11.927 0 0 0-1.652-.026 11.77 11.77 0 0 0-2.256.349c-.142.03-.285.058-.427.096a8.95 8.95 0 0 0-.684.207l-27.357 9.669-.072-51.824c-.009-6.682-5.448-12.11-12.127-12.11h-.017l-56.99.08a12.048 12.048 0 0 0-8.57 3.564 12.046 12.046 0 0 0-3.54 8.58l.125 89.181-.031.036c-.197.224-.384.456-.578.683-.31.363-.622.724-.924 1.095-.19.233-.371.473-.557.709-.295.372-.592.742-.878 1.121-.183.242-.357.491-.537.736-.279.38-.562.758-.833 1.145-.175.249-.34.505-.511.756-.265.389-.533.777-.79 1.172-.167.257-.325.521-.488.781-.25.397-.503.793-.744 1.196-.157.262-.304.53-.458.794-.236.408-.476.814-.704 1.227-.15.273-.291.551-.437.827-.218.411-.44.819-.65 1.235-.147.291-.283.587-.426.88-.198.407-.399.812-.589 1.224-.139.301-.267.607-.401.911-.181.411-.366.819-.539 1.234-.13.312-.25.63-.375.945-.164.411-.332.82-.487 1.235-.122.326-.233.656-.35.984-.146.411-.297.82-.436 1.234-.112.335-.213.675-.319 1.012-.13.412-.265.822-.387 1.238-.101.345-.191.694-.287 1.041-.114.414-.233.826-.339 1.243-.089.35-.167.705-.25 1.058-.099.418-.203.835-.294 1.256-.078.362-.144.728-.216 1.092-.082.416-.169.83-.244 1.248-.067.378-.122.759-.182 1.138-.065.409-.136.817-.193 1.228-.055.39-.097.783-.144 1.174-.049.406-.104.81-.146 1.218-.041.397-.069.797-.102 1.196-.031.372-.07.743-.095 1.116l-46.824.065a.297.297 0 0 1-.297-.297l-.061-43.95a7.286 7.286 0 0 0-7.286-7.276h-.01a7.286 7.286 0 0 0-7.276 7.296l.061 43.951c.012 8.192 6.68 14.848 14.869 14.848h.02l46.161-.064-2.914 66.627a19.903 19.903 0 0 0 5.333 14.749 19.865 19.865 0 0 0 14.432 6.25h359.793a19.863 19.863 0 0 0 14.431-6.25 19.9 19.9 0 0 0 5.334-14.749zm-117.462-259.44a2.464 2.464 0 0 1-2.461 2.461h-2.91v-17.26h5.371v14.799zM302.659 66.046c.007-.026.019-.05.026-.076a6.384 6.384 0 0 1 2.237-3.434c.029-.023.06-.045.09-.067a6.391 6.391 0 0 1 1.679-.915c.046-.017.091-.035.137-.05.291-.098.591-.175.898-.231.055-.01.111-.017.166-.025.319-.049.642-.082.972-.082h6.877c.33 0 .654.033.972.082.055.008.111.015.166.025.306.056.606.132.897.231.047.016.093.034.14.051.604.22 1.168.528 1.675.913l.093.069c.25.197.485.412.704.645l.054.06a6.386 6.386 0 0 1 1.477 2.727c.007.026.019.049.026.075.119.486.189.992.189 1.514v24.585a6.4 6.4 0 0 1-6.392 6.393h-6.877a6.4 6.4 0 0 1-6.393-6.393V67.558h-.001c0-.522.07-1.026.188-1.512zM96.598 105.954l.024 14.974-26.773 25.222-.065-40.158 26.814-.038zm128.521 13.865a80.07 80.07 0 0 0-.393 2.25c-.066.422-.12.844-.179 1.267-.096.687-.194 1.373-.272 2.064-.066.579-.112 1.159-.165 1.739-.049.545-.108 1.087-.146 1.634a77.236 77.236 0 0 0-.193 5.513v1.148c-.015.004-.028.011-.043.015a14.63 14.63 0 0 0-1.703.636c-.373.168-.739.349-1.093.55-.052.03-.109.051-.161.081l-43.362-40.621a7.286 7.286 0 0 0-9.977.014L27.987 227.473a7.856 7.856 0 0 1-5.695 2.163 7.91 7.91 0 0 1-5.555-2.498 7.905 7.905 0 0 1-2.163-5.694 7.908 7.908 0 0 1 2.498-5.555L166.943 74.703a7.94 7.94 0 0 1 5.457-2.161c1.957 0 3.915.715 5.442 2.146l47.404 44.406c-.048.242-.082.484-.127.725zm7.444 67.611a2.464 2.464 0 0 1-2.462-2.461V170.17h5.37v17.26h-2.908zm-3.934-34.099v-3.842h2.429a7.286 7.286 0 0 0 7.286-7.286v-7.919a62.97 62.97 0 0 1 .201-5.04c.022-.283.054-.564.08-.847.078-.855.169-1.709.282-2.562a64.797 64.797 0 0 1 .569-3.53c.038-.201.074-.402.113-.603.219-1.098.462-2.192.738-3.279l.003-.018a63 63 0 0 1 15.486-27.962c8.783-9.198 19.958-15.385 32.082-17.891v19.587c0 11.56 9.405 20.964 20.965 20.964h6.877c11.56 0 20.964-9.405 20.964-20.964V72.554c12.123 2.506 23.3 8.693 32.083 17.891 10.852 11.365 17.05 26.327 17.451 42.131.014.568.021 1.137.021 1.708v7.919a7.286 7.286 0 0 0 7.286 7.286h2.43v3.842H228.629zm21.69 49.875-.038-.337a42.254 42.254 0 0 1-.157-1.825l-.02-.291a37.47 37.47 0 0 1-.061-2.086V170.17h124.516v28.345c0 .698-.022 1.402-.062 2.108l-.017.243a41.163 41.163 0 0 1-.197 2.198c-.08.685-.174 1.372-.288 2.062l-.002.011c-2.583 15.585-13.735 32.221-27.403 42.192-.098.071-.196.144-.294.214-.433.312-.871.611-1.309.909-.241.163-.479.332-.721.491-.128.084-.257.162-.386.245-.444.287-.889.573-1.339.847-.023.014-.043.032-.066.046-4.062 2.47-8.283 4.325-12.519 5.379l-.762.19c-15.542 3.865-19.11 3.856-34.709-.077-4.196-1.058-8.377-2.905-12.402-5.359-.009-.006-.017-.013-.026-.018-.161-.098-.318-.203-.479-.303a58.705 58.705 0 0 1-1.422-.909c-.117-.077-.232-.159-.348-.237-15.087-10.202-27.522-28.715-29.489-45.541zm27.813 83.789a11.465 11.465 0 0 0 7.421-10.769l.001-8.187a53.823 53.823 0 0 0 5.37 1.664c8.95 2.256 14.98 3.382 21.019 3.382 5.97 0 11.95-1.1 20.77-3.293l.762-.19a53.92 53.92 0 0 0 5.574-1.721l.001 8.345c0 4.836 2.952 9.075 7.421 10.77l11.675 5.861c-.14.107-.277.22-.417.326-.321.241-.647.474-.972.71a73.794 73.794 0 0 1-2.907 2.011c-.637.418-1.281.824-1.93 1.222-.331.203-.66.41-.993.608a74.97 74.97 0 0 1-2.406 1.362c-.191.104-.378.215-.57.317a74.685 74.685 0 0 1-3.046 1.531c-.275.131-.555.25-.832.378a74.05 74.05 0 0 1-2.29 1.013c-.37.156-.744.303-1.117.453a78.487 78.487 0 0 1-3.273 1.228 77.03 77.03 0 0 1-2.209.726c-.354.111-.707.227-1.063.333-.975.29-1.957.56-2.945.81-.119.03-.236.066-.355.095a75.88 75.88 0 0 1-3.36.749c-.323.065-.649.118-.974.179a75.55 75.55 0 0 1-2.437.419c-.403.062-.807.117-1.211.172a78.637 78.637 0 0 1-3.52.404 78.45 78.45 0 0 1-2.437.178c-.354.021-.707.048-1.063.064a77.642 77.642 0 0 1-3.519.085c-1.178 0-2.35-.033-3.519-.085-.355-.016-.707-.043-1.06-.064a78.934 78.934 0 0 1-2.441-.178c-.412-.037-.823-.081-1.233-.124a78.842 78.842 0 0 1-2.287-.279c-.403-.055-.807-.11-1.209-.172a73.517 73.517 0 0 1-2.44-.42c-.324-.061-.65-.114-.972-.178a74.229 74.229 0 0 1-3.361-.75c-.116-.029-.23-.064-.346-.093a74.48 74.48 0 0 1-2.954-.813c-.354-.105-.704-.221-1.056-.331a77.66 77.66 0 0 1-2.218-.729 80.184 80.184 0 0 1-3.276-1.229c-.369-.148-.738-.294-1.104-.448a74.659 74.659 0 0 1-2.316-1.024c-.268-.123-.539-.239-.805-.366-1.03-.489-2.049-1-3.057-1.536-.18-.096-.355-.2-.534-.297a74.243 74.243 0 0 1-2.442-1.382c-.327-.194-.649-.396-.973-.595a73.877 73.877 0 0 1-2.983-1.926 73.468 73.468 0 0 1-1.883-1.327c-.317-.23-.635-.457-.948-.692-.143-.107-.282-.223-.424-.331l11.673-5.866zm-145.726 163.84a5.173 5.173 0 0 1-3.807-1.65 5.206 5.206 0 0 1-1.412-3.933l.008-.144 3.535-80.834a50.148 50.148 0 0 1 13.7-31.346c.076-.072.156-.139.229-.215a50.357 50.357 0 0 1 16.894-11.528 49.752 49.752 0 0 1 2.489-.964l10.991-3.884v134.498h-42.627zm47.133-151.545-20.351 7.193c-.764.27-1.52.553-2.268.849-.238.094-.47.198-.706.294-.185.076-.369.153-.553.231-.321.135-.646.263-.964.403-.351.154-.694.321-1.042.481-.378.174-.76.342-1.133.523-.352.171-.697.353-1.045.529-.361.183-.727.36-1.084.55-.328.174-.649.36-.974.539-.368.204-.74.402-1.104.612-.32.185-.632.382-.949.572-.231.139-.463.276-.692.417l-.104-74.447 52.101-.073.076 54.507-18.855 6.663c-.123.043-.234.107-.353.157zm10.066 151.545V311.187l48.2-17.035 5.577 27.372c2.086 10.238 8.355 19.301 17.198 24.865l44.435 27.96v76.486h-115.41zm78.736-116.779a23.987 23.987 0 0 1-10.68-15.441l-3.443-16.901c.272.229.534.473.808.698 16.068 13.206 36.094 20.388 57.277 20.388a91.85 91.85 0 0 0 17.278-1.641c15.042-2.879 29.017-9.521 40.806-19.445l-3.444 16.901a23.975 23.975 0 0 1-10.678 15.44l-43.962 27.662-43.962-27.661zm166.658 116.779H319.588V374.35l44.436-27.96c8.845-5.565 15.113-14.628 17.197-24.865l5.578-27.373 48.2 17.035v139.648z" fill="#fcf7f7" data-original="#000000" class="" opacity="1"></path></g></svg>